<?xml version="1.0" encoding="utf-8"?>
<!-- Uploaded to: SVG Repo, www.svgrepo.com, Generator: SVG Repo Mixer Tools -->
<svg width="800px" height="800px" viewBox="0 0 1024 1024" class="icon"  version="1.1" xmlns="http://www.w3.org/2000/svg"><path d="M497.477211 943.093606c-2.770634 3.624554 2.771658 3.624554 0 0zM612.800486 714.152847V234.739021c0-77.166141-62.670997-139.838162-139.838162-139.838162-77.166141 0-139.838162 62.670997-139.838162 139.838162v482.610396h1.065865c-1.491801 2.131729-1.491801 5.329323 0.212968 7.67402l163.074216 218.070169 31.761946-65.868591 83.561329-163.072168z" fill="#FFFFFF" /><path d="M669.290287 717.350441H389.402019V234.739021c0-77.166141 62.670997-139.838162 139.838162-139.838162 77.166141 0 139.838162 62.670997 139.838162 139.838162v482.610396l0.211944 0.001024z" fill="#3769A5" /><path d="M494.706577 89.359592c-70.345017 10.445678-124.276129 68.213288-124.276129 138.132369v482.610396h248.33929V227.491961c0-69.919081-53.718144-127.900683-124.063161-138.132369z" fill="#4E9BD4" /><path d="M618.769738 286.965364v-59.473403c0-69.919081-53.931112-127.900683-124.276129-138.132369-70.345017 10.445678-124.276129 68.213288-124.276129 138.132369v59.473403h248.552258z" fill="#4077BB" /><path d="M663.535028 714.152847H370.429424l103.812757 162.8592 31.761947 66.081559c2.770634 3.62353-2.771658 3.62353 0 0l163.073191-218.070169c3.410562-4.475403 0.212968-10.87059-5.542291-10.87059z" fill="#FFE4B8" /><path d="M445.890796 877.225015l49.241717 65.868591a6.795527 6.795527 0 0 0 10.871615 0l49.241716-65.868591H445.890796z" fill="#4077BB" /><path d="M618.769738 714.152847l-79.084903 163.072168h21.316269l101.468059-143.674661V714.152847z" fill="#E7D0A9" /><path d="M333.125186 368.821924c-7.034092 0-12.790375 5.755259-12.790375 12.790375v49.028749c0 7.034092 5.755259 12.790375 12.790375 12.790376s12.790375-5.755259 12.790375-12.790376v-49.028749c0-7.035116-5.755259-12.790375-12.790375-12.790375z" fill="" /><path d="M332.912218 365.411362c7.034092 0 12.790375-5.755259 12.790375-12.790376v-50.946486h285.643528c7.034092 0 12.790375-5.755259 12.790376-12.790375s-5.755259-12.790375-12.790376-12.790375h-285.643528v-20.890333c0-85.267122 69.492121-154.759243 154.759243-154.759243s154.759243 69.492121 154.759243 154.759243v306.320892c0 7.034092 5.755259 12.790375 12.790376 12.790376 7.034092 0 12.790375-5.755259 12.790375-12.790376V255.203417c0-99.33633-81.003664-180.33897-180.33897-180.33897s-180.339994 81.003664-180.339994 180.33897v97.417569c-0.001024 7.034092 5.755259 12.790375 12.789352 12.790376zM668.224423 577.938215c-7.034092 0-12.790375 5.755259-12.790376 12.790375v106.583391H370.429424c-7.034092 0-12.790375 5.755259-12.790376 12.790376 0 7.034092 5.755259 12.790375 12.790376 12.790375h283.512822c-1.705793 7.034092-4.689395 13.85624-9.165821 19.824468L506.004128 930.304254c-1.918761 2.344697-4.263458 2.770634-5.542292 2.770634-1.278833 0-3.410562-0.425936-5.116355-2.557666L356.574208 742.930168c-7.034092-9.592782-10.871614-21.1033-10.871615-32.827811V459.417345c0-7.034092-5.755259-12.790375-12.790375-12.790375s-12.790375 5.755259-12.790376 12.790375v250.685012c0 17.266802 5.329323 33.680708 15.773978 47.962884l138.772297 187.587054c5.968228 8.313949 15.348041 13.003344 25.579727 13.003344h0.212968c10.231686 0 19.6115-4.689395 26.006688-13.003344l138.772297-187.587054c10.231686-14.069208 15.561009-30.696082 15.561009-47.748892v-119.37479a12.566145 12.566145 0 0 0-12.576383-13.003344z" fill="" /><path d="M452.285984 145.209465c-33.040779 0-59.900363 26.85856-59.900363 59.900363 0 4.05049 3.410562 7.461052 7.461052 7.461052s7.461052-3.410562 7.461053-7.461052c0-24.727854 20.250404-44.978258 44.978258-44.978259 4.05049 0 7.461052-3.410562 7.461052-7.461052s-3.410562-7.461052-7.461052-7.461052zM399.846673 225.360232c-4.05049 0-7.461052 3.410562-7.461052 7.461052v11.724511c0 4.05049 3.410562 7.461052 7.461052 7.461052s7.461052-3.410562 7.461053-7.461052v-11.724511c0-4.05049-3.410562-7.461052-7.461053-7.461052zM399.846673 586.252164c-4.05049 0-7.461052 3.410562-7.461052 7.461052v69.706113c0 4.05049 3.410562 7.461052 7.461052 7.461052s7.461052-3.410562 7.461053-7.461052v-69.706113c0-4.05049-3.410562-7.461052-7.461053-7.461052z" fill="#FFFFFF" /><path d="M748.37519 116.432144h-7.461052v-7.461053c0-4.05049-3.410562-7.461052-7.461053-7.461052s-7.461052 3.410562-7.461052 7.461052v7.461053h-7.461052c-4.05049 0-7.461052 3.410562-7.461053 7.461052s3.410562 7.461052 7.461053 7.461052h7.461052v7.461053c0 4.05049 3.410562 7.461052 7.461052 7.461052s7.461052-3.410562 7.461053-7.461052v-7.461053h7.461052c4.05049 0 7.461052-3.410562 7.461052-7.461052s-3.410562-7.461052-7.461052-7.461052z" fill="#FBD20A" /><path d="M279.620011 724.810469h-7.461053v-7.461052c0-4.05049-3.410562-7.461052-7.461052-7.461052s-7.461052 3.410562-7.461053 7.461052v7.461052h-7.461052c-4.05049 0-7.461052 3.410562-7.461052 7.461053s3.410562 7.461052 7.461052 7.461052h7.461052v7.461052c0 4.05049 3.410562 7.461052 7.461053 7.461053s7.461052-3.410562 7.461052-7.461053v-7.461052h7.461053c4.05049 0 7.461052-3.410562 7.461052-7.461052s-3.410562-7.461052-7.461052-7.461053z" fill="#F16723" /><path d="M685.277233 841.62657h-7.461052v-7.461053c0-4.05049-3.410562-7.461052-7.461053-7.461052s-7.461052 3.410562-7.461052 7.461052v7.461053h-7.461052c-4.05049 0-7.461052 3.410562-7.461053 7.461052s3.410562 7.461052 7.461053 7.461053h7.461052v7.461052c0 4.05049 3.410562 7.461052 7.461052 7.461052s7.461052-3.410562 7.461053-7.461052v-7.461052h7.461052c4.05049 0 7.461052-3.410562 7.461052-7.461053s-3.410562-7.461052-7.461052-7.461052z" fill="#4E9BD4" /><path d="M755.409282 467.091366c-12.150447 0-21.956197-9.80575-21.956197-21.956197 0-12.150447 9.80575-21.956197 21.956197-21.956197 12.150447 0 21.956197 9.80575 21.956197 21.956197s-9.80575 21.956197-21.956197 21.956197z m0-28.990289c-3.836498 0-7.034092 3.197594-7.034092 7.034092s3.197594 7.034092 7.034092 7.034092 7.034092-3.197594 7.034092-7.034092c0.001024-3.836498-3.19657-7.034092-7.034092-7.034092z" fill="#F16723" /><path d="M745.390564 508.446094m-4.476426 0a4.476427 4.476427 0 1 0 8.952853 0 4.476427 4.476427 0 1 0-8.952853 0Z" fill="" /><path d="M791.008751 123.892172m-4.476427 0a4.476427 4.476427 0 1 0 8.952854 0 4.476427 4.476427 0 1 0-8.952854 0Z" fill="" /><path d="M358.918905 65.058697m-4.476427 0a4.476427 4.476427 0 1 0 8.952854 0 4.476427 4.476427 0 1 0-8.952854 0Z" fill="" /><path d="M290.491625 816.259811m-4.476427 0a4.476427 4.476427 0 1 0 8.952854 0 4.476427 4.476427 0 1 0-8.952854 0Z" fill="" /><path d="M405.815925 911.545651m-4.476427 0a4.476427 4.476427 0 1 0 8.952853 0 4.476427 4.476427 0 1 0-8.952853 0Z" fill="" /><path d="M328.009855 71.666853m-6.608156 0a6.608156 6.608156 0 1 0 13.216312 0 6.608156 6.608156 0 1 0-13.216312 0Z" fill="" /><path d="M264.911898 178.67618c-14.069208 0-25.366759-11.297551-25.366759-25.366759s11.297551-25.366759 25.366759-25.366759 25.366759 11.297551 25.366759 25.366759a25.289968 25.289968 0 0 1-25.366759 25.366759z m0-35.811413c-5.755259 0-10.445678 4.689395-10.445678 10.445678 0 5.755259 4.689395 10.445678 10.445678 10.445678s10.445678-4.689395 10.445678-10.445678-4.690419-10.445678-10.445678-10.445678z" fill="#FBD20A" /><path d="M247.006191 448.545731c-9.80575 0-17.905707-8.099957-17.905706-17.905707s8.099957-17.905707 17.905706-17.905706 17.905707 8.099957 17.905707 17.905706-8.099957 17.905707-17.905707 17.905707z m0-20.890332c-1.705793 0-2.984626 1.278833-2.984625 2.984625s1.278833 2.984626 2.984625 2.984626 2.984626-1.278833 2.984626-2.984626-1.279857-2.984626-2.984626-2.984625z" fill="#4E9BD4" /></svg>