<?xml version="1.0" encoding="utf-8"?>
<!-- Uploaded to: SVG Repo, www.svgrepo.com, Generator: SVG Repo Mixer Tools -->
<svg width="800px" height="800px" viewBox="0 0 1024 1024" class="icon"  version="1.1" xmlns="http://www.w3.org/2000/svg"><path d="M234.116499 676.974547c20.126514 0 36.445198-17.481818 36.445198-39.05201V533.362343h-72.893468v104.561218c0.001024 21.569168 16.319708 39.050986 36.44827 39.050986z" fill="#54B7FA" /><path d="M222.401203 621.237301m-11.715296 0a11.715296 11.715296 0 1 0 23.430592 0 11.715296 11.715296 0 1 0-23.430592 0Z" fill="#348EE4" /><path d="M227.78684 579.361416m-7.369927 0a7.369927 7.369927 0 1 0 14.739853 0 7.369927 7.369927 0 1 0-14.739853 0Z" fill="#348EE4" /><path d="M216.707377 566.650903c0-10.51735-8.523845-19.038124-19.038124-19.038124v38.075224c10.514278 0 19.038124-8.520774 19.038124-19.0371z" fill="#348EE4" /><path d="M212.637433 688.279265c-23.929224 0-43.395332-20.635385-43.395332-46.00112v-131.896908h13.898219v131.897932c0 17.700929 13.23167 32.101877 29.496089 32.101876s29.498136-14.400947 29.498136-32.101876v-133.248436h13.898219v133.248436c0.002048 25.364711-19.466108 46.000096-43.395331 46.000096z" fill="" /><path d="M270.487977 510.243013c0 6.849793-4.401683 12.405395-9.820084 12.405394h-17.459292s-5.976419 0.558018-5.914986-12.405394c0 0-1.090438-11.505399 5.914986-12.40949h17.459292c5.417377 0 9.820084 5.55253 9.820084 12.40949zM154.633305 510.243013c0 6.849793 4.399635 12.40949 9.818036 12.40949h17.459293s5.96106-0.540611 5.914986-12.40949c0 0 0.961428-12.40949-5.914986-12.40949h-17.459293c-5.417377 0-9.818036 5.556626-9.818036 12.40949z" fill="" /><path d="M868.814821 859.509751h78.589342" fill="#FEDEBB" /><path d="M947.404163 866.458861h-78.589342a6.94911 6.94911 0 1 1 0-13.89822h78.589342a6.94911 6.94911 0 1 1 0 13.89822z" fill="" /><path d="M795.591662 859.509751h22.453805" fill="#FEDEBB" /><path d="M818.045467 866.458861h-22.453805a6.94911 6.94911 0 1 1 0-13.89822h22.453805a6.94911 6.94911 0 1 1 0 13.89822z" fill="" /><path d="M181.506199 859.509751h563.318157" fill="#FEDEBB" /><path d="M744.824356 866.458861H181.506199a6.94911 6.94911 0 1 1 0-13.89822h563.318157a6.94911 6.94911 0 1 1 0 13.89822z" fill="" /><path d="M99.986498 859.509751h36.124722" fill="#FEDEBB" /><path d="M136.11122 866.458861h-36.124722a6.94911 6.94911 0 1 1 0-13.89822h36.124722a6.94911 6.94911 0 1 1 0 13.89822z" fill="" /><path d="M84.991697 416.547267c-8.752172 0-15.871246-7.118051-15.871246-15.868175 0-8.751148 7.119075-15.871246 15.871246-15.871246 8.750124 0 15.869199 7.120099 15.869199 15.871246-0.001024 8.750124-7.120099 15.868175-15.869199 15.868175z m0-27.10634c-6.19553 0-11.238165 5.041611-11.238165 11.238165 0 6.194506 5.042635 11.235094 11.238165 11.235094s11.236118-5.039564 11.236117-11.235094c0-6.197578-5.040587-11.238165-11.236117-11.238165z" fill="#FD5C1E" /><path d="M98.586846 284.777321a5.367207 5.367207 0 0 1-5.36823-5.369255v-5.369254a5.856624 5.856624 0 1 0-11.715296 0v5.369254a5.368231 5.368231 0 0 1-5.370279 5.369255h-5.370278a5.859696 5.859696 0 0 0-5.856624 5.857648 5.859696 5.859696 0 0 0 5.856624 5.857648h5.370278a5.367207 5.367207 0 0 1 5.370279 5.369254v5.370279a5.858672 5.858672 0 0 0 11.715296 0v-5.370279a5.368231 5.368231 0 0 1 5.36823-5.369254h5.370279a5.858672 5.858672 0 0 0 0-11.715296h-5.370279z" fill="#2BA9FC" /><path d="M279.025133 253.269298a5.616011 5.616011 0 0 1-5.612939-5.61294v-5.625225a6.120786 6.120786 0 0 0-6.133073-6.120787 6.123858 6.123858 0 0 0-6.125906 6.120787v5.625225a5.610892 5.610892 0 0 1-5.611916 5.61294h-5.614987a6.128978 6.128978 0 1 0 0 12.257955h5.614987a5.611915 5.611915 0 0 1 5.611916 5.612939v5.613964a6.127954 6.127954 0 0 0 6.125906 6.124882 6.125906 6.125906 0 0 0 6.133073-6.124882v-5.613964a5.614987 5.614987 0 0 1 5.612939-5.612939h5.621131a6.133073 6.133073 0 0 0 6.130001-6.133073c0-3.381893-2.753228-6.124882-6.130001-6.124882h-5.621131z" fill="#FD5C1E" /><path d="M198.874366 166.425392a6.132049 6.132049 0 0 1-6.137169-6.134097v-6.137168a6.698258 6.698258 0 0 0-6.69621-6.693139 6.701329 6.701329 0 0 0-6.69621 6.693139v6.137168a6.128978 6.128978 0 0 1-6.132049 6.134097h-6.139216a6.69621 6.69621 0 0 0-6.694162 6.702354 6.692114 6.692114 0 0 0 6.694162 6.69109h6.139216a6.128978 6.128978 0 0 1 6.132049 6.134097v6.142288c0 3.69213 3.002032 6.689043 6.69621 6.689043a6.694162 6.694162 0 0 0 6.69621-6.689043v-6.142288a6.132049 6.132049 0 0 1 6.137169-6.134097h6.135121a6.689043 6.689043 0 0 0 6.694162-6.69109 6.694162 6.694162 0 0 0-6.694162-6.702354h-6.135121z" fill="#FED62C" /><path d="M172.522629 300.397715a3.28872 3.28872 0 0 0-3.291791 3.295887l-0.007167 14.479787c0 1.813301 1.479514 3.286672 3.299982 3.292815a3.296911 3.296911 0 0 0 3.286672-3.292815v-14.479787a3.287696 3.287696 0 0 0-3.287696-3.295887zM172.522629 350.429872a3.297935 3.297935 0 0 0-3.297934 3.289743l0.007167 14.482858a3.289744 3.289744 0 0 0 3.291791 3.291792 3.286672 3.286672 0 0 0 3.28872-3.291792v-14.482858a3.289744 3.289744 0 0 0-3.289744-3.289743zM157.626122 325.706113a3.289744 3.289744 0 0 0 4.655606 0 3.290767 3.290767 0 0 0 0-4.653559l-10.242948-10.240901a3.279505 3.279505 0 0 0-4.650487 0 3.289744 3.289744 0 0 0 0 4.652535l10.237829 10.241925zM187.415042 346.185867a3.284624 3.284624 0 0 0-4.64844 0 3.294863 3.294863 0 0 0 0 4.656631l10.240901 10.239877a3.296911 3.296911 0 0 0 4.650487 0 3.291791 3.291791 0 0 0 0-4.655607l-10.242948-10.240901zM158.038748 335.944966a3.285648 3.285648 0 0 0-3.291792-3.286672h-14.479786a3.286672 3.286672 0 0 0-3.291791 3.286672 3.295887 3.295887 0 0 0 3.291791 3.294863h14.479786a3.291791 3.291791 0 0 0 3.291792-3.294863zM204.773993 332.658294h-14.484905a3.2836 3.2836 0 0 0-3.282577 3.290768 3.2836 3.2836 0 0 0 3.291792 3.291791h14.47569a3.293839 3.293839 0 0 0 3.293839-3.294863 3.279505 3.279505 0 0 0-3.293839-3.287696zM157.626122 346.185867l-10.238853 10.240901a3.292815 3.292815 0 0 0 0 4.655607c1.290096 1.279857 3.365511 1.293167 4.650487 0l10.242949-10.239877a3.291791 3.291791 0 1 0-4.654583-4.656631zM187.419137 325.706113l10.238853-10.241925a3.292815 3.292815 0 0 0 0-4.652535 3.279505 3.279505 0 0 0-4.650487 0L182.766602 321.052554a3.290767 3.290767 0 0 0 0 4.653559 3.281552 3.281552 0 0 0 4.652535 0z" fill="#FED62C" /><path d="M190.380213 467.286928m-7.164125 0a7.164126 7.164126 0 1 0 14.328251 0 7.164126 7.164126 0 1 0-14.328251 0Z" fill="#FD5C1E" /><path d="M148.019006 235.909322a7.167197 7.167197 0 0 1-7.169245 7.166174 7.162078 7.162078 0 0 1-7.162078-7.166174 7.163102 7.163102 0 0 1 7.162078-7.165149 7.169245 7.169245 0 0 1 7.169245 7.165149z" fill="#FD5C1E" /><path d="M160.669109 439.412674a5.195194 5.195194 0 0 1-5.189051 5.19417 5.19417 5.19417 0 0 1-5.196218-5.19417 5.196218 5.196218 0 0 1 5.196218-5.190075 5.196218 5.196218 0 0 1 5.189051 5.190075z" fill="#FDD72C" /><path d="M247.051242 434.906554c-10.80199 0-19.589998-8.786984-19.589998-19.58795 0-10.805062 8.788008-19.596141 19.589998-19.596141 10.80199 0 19.58795 8.791079 19.58795 19.596141 0 10.799942-8.78596 19.58795-19.58795 19.58795z m0-32.234981c-6.969587 0-12.640888 5.673349-12.640888 12.647031 0 6.968564 5.671301 12.63884 12.640888 12.638841s12.63884-5.670277 12.638841-12.638841c0-6.973683-5.668229-12.647032-12.638841-12.647031z" fill="#2BA9FC" /><path d="M370.838978 450.66415c-13.07092 40.686131-11.507447 82.593757 1.769274 120.19185 7.180508 20.334363 19.015598 54.708241 23.955845 76.319388l6.279489 24.330587 182.720527 58.71368 19.468155-17.771577c17.493081-17.655879 49.658438-38.394676 66.876094-51.387781 29.980386-22.614555 53.46422-54.230086 65.770298-92.522373 32.106996-99.932232-23.98349-207.328587-125.280561-239.876878-101.303214-32.549314-209.44803 22.07292-241.559121 122.003104z" fill="#FDD72C" /><path d="M417.511767 442.214024a6.950134 6.950134 0 0 1-5.472667-11.227926c15.97773-20.445966 35.563633-37.367719 58.216071-50.292224a6.948086 6.948086 0 1 1 6.885629 12.070584c-21.074632 12.024509-39.291599 27.763674-54.149199 46.779273a6.937847 6.937847 0 0 1-5.479834 2.670293zM511.060073 378.215048a6.951157 6.951157 0 0 1-1.76825-13.670917 203.520758 203.520758 0 0 1 15.843602-3.508855c3.743325-0.681908 7.390404 1.830707 8.06924 5.610892a6.950134 6.950134 0 0 1-5.612939 8.068216 188.746092 188.746092 0 0 0-14.754188 3.269266 7.009519 7.009519 0 0 1-1.777465 0.231398z" fill="#FFFFFF" /><path d="M590.731662 326.829315a194.159374 194.159374 0 0 0-27.554802-6.676756c83.136417 40.871454 126.229702 136.596541 97.421665 226.251012-12.149423 37.816181-35.34145 69.035468-64.94607 91.367431-16.99752 12.828259-48.760491 33.308014-66.036508 50.747852l-19.228566 17.546323 53.848177 17.302638 19.228566-17.545299c17.276017-17.440863 49.038988-37.922665 66.036508-50.748876 29.60462-22.335034 52.798695-53.550226 64.951189-91.367431 31.709729-98.681044-23.683491-204.735086-123.720159-236.876894z" fill="#F37C20" /><path d="M498.331131 797.896428l-63.846417-20.513543c-24.488265-7.867535-41.689539-31.778329-37.830515-60.006847l6.501672-45.767674 182.256707 58.563169s-10.070936 18.506727-21.375654 40.984082c-13.721087 27.283472-41.220599 34.612443-65.705793 26.740813z" fill="#FFFFFF" /><path d="M554.75438 730.744909l-190.801031-59.220504-7.510199-27.970499c-3.793495-15.838482-12.0327-41.179644-24.533316-75.505399-14.749068-40.475211-15.809813-83.562353-3.071656-124.602749v0.001024c32.204265-103.742109 143.915273-161.598797 249.028365-128.975763 50.902459 15.799574 92.693362 50.214408 117.672069 96.903579 24.997136 46.722959 30.169805 100.14008 14.565792 150.41285-11.969219 38.546211-35.221655 71.955589-67.24674 96.617915-4.857312 3.741277-10.916665 8.12453-17.332331 12.766826-16.13848 11.675364-36.224039 26.206345-48.281312 38.620954l-0.250852 0.244709-22.238789 20.707057zM375.390148 660.52071l175.789848 54.560801 16.21732-15.101285c12.908122-13.249076 33.459549-28.115891 49.981986-40.069752 6.327611-4.578815 12.306078-8.902683 17.000591-12.518022 29.742845-22.904315 51.33761-53.931112 62.450862-89.726143 14.493097-46.692242 9.68186-96.317916-13.546003-139.735773-23.246292-43.44755-62.147791-75.476731-109.540371-90.185867-97.790263-30.35308-201.704385 23.39578-231.632554 119.82018v0.001024c-11.830995 38.110036-10.842946 78.126546 2.854593 115.723615 12.863071 35.311757 21.022413 60.448142 24.946966 76.842593l5.476762 20.388629z" fill="" /><path d="M467.217304 797.634313l-64.048123-19.880781c-24.561985-7.627946-42.003872-31.362631-38.425392-59.629034l6.049114-45.833203 182.824964 56.750892s-9.881517 18.607068-20.963028 41.199098c-13.450782 27.41453-40.876574 35.01483-65.437535 27.393028z" fill="#FFFFFF" /><path d="M485.186491 807.387845c-6.526245 0-13.258291-1.015694-20.029245-3.115683l-64.048122-19.880782c-29.322028-9.106436-47.108964-36.71448-43.259155-67.139232l7.132385-54.040668 198.707473 61.6809-3.933768 7.409858c-0.097269 0.184299-9.960356 18.777033-20.861663 41.000464-10.65967 21.725823-30.935671 34.085142-53.707905 34.085143z m-15.908106-16.390357c18.190347 5.647751 44.078263 2.798279 57.136896-23.816596a1669.393828 1669.393828 0 0 1 17.176701-33.975587l-166.987506-51.834195-4.969939 37.662598c-2.98565 23.579055 10.826563 45.012047 33.594701 52.082999l64.049147 19.880781zM695.357384 739.099813a6.950134 6.950134 0 0 1-6.894844-7.885965c3.849809-28.34217-38.0742-38.87283-38.499112-38.975219l-0.224231-0.058361-63.948806-17.833011a6.94911 6.94911 0 0 1 3.732062-13.387301l63.840274 17.802295c18.899899 4.628986 53.277873 21.88862 48.871071 54.323259a6.948086 6.948086 0 0 1-6.876414 6.014303z" fill="" /><path d="M694.118483 729.938087a8.250468 8.250468 0 1 1-5.727615-10.16411c4.39042 1.225591 6.958325 5.774713 5.727615 10.16411zM375.453629 637.482266l-37.329835-0.044027c-1.861424-0.211944-45.842418-5.487001-66.853568-32.351705-8.883229-11.358984-12.382869-24.801574-10.396532-39.952005 0.499656-3.805782 3.993153-6.479146 7.792791-5.987681a6.950134 6.950134 0 0 1 5.987682 7.792791c-1.504088 11.476731 0.970643 21.153471 7.562417 29.584142 16.581823 21.198522 53.135553 26.536036 57.123586 27.060266h36.113459a6.94911 6.94911 0 1 1 0 13.898219z" fill="" /><path d="M268.992081 568.248164a8.251492 8.251492 0 0 1 10.16411-5.727614 8.246372 8.246372 0 0 1 5.725566 10.163085c-1.221495 4.391444-5.772665 6.953205-10.161038 5.728639a8.245349 8.245349 0 0 1-5.728638-10.16411zM455.040235 562.915769c-2.2505 7.986306-10.562401 12.647032-18.558945 10.390389-7.989377-2.2505-12.644984-10.561377-10.390388-18.550755 2.2505-7.993473 10.557282-12.652151 18.551778-10.399603 7.997568 2.253572 12.651127 10.564449 10.397555 18.559969zM581.62625 587.429632c-2.255619 7.994497-10.562401 12.646008-18.553826 10.396531-7.994497-2.254595-12.647032-10.563425-10.394484-18.552802 2.2505-7.997568 10.562401-12.650103 18.556898-10.400627 7.991425 2.254595 12.64396 10.564449 10.391412 18.556898zM526.040539 608.471499c0.637881-1.89214-0.615355-3.822164-2.569952-4.245028l-56.456013-12.279457c-1.943334-0.419793-3.888716 0.815013-4.103732 2.799302-1.69453 16.264418 9.079815 31.545907 25.429216 35.100837 16.350425 3.552882 32.500168-5.87403 37.700481-21.375654z" fill="" /><path d="M503.869327 620.670069c-0.850849 3.890764-8.014974 5.640584-16.013567 3.905099-7.996544-1.742653-13.794807-6.311229-12.948054-10.197898 0.847777-3.88974 8.012927-5.63956 16.013567-3.901003 7.998592 1.735486 13.786616 6.305086 12.948054 10.193802z" fill="#FD631F" /></svg>